<svg viewBox="0 0 40 40" fill="none" xmlns="http://www.w3.org/2000/svg">
  <defs>
    <linearGradient id="logo-grad" x1="8" y1="4" x2="32" y2="34" gradientUnits="userSpaceOnUse">
      <stop stop-color="#8BC34A"/>
      <stop offset="1" stop-color="#6AAF29"/>
    </linearGradient>
  </defs>
  <!-- Outer leaf/heart shape -->
  <path d="M20 4C20 4 8 12 8 22C8 28.627 13.373 34 20 34C26.627 34 32 28.627 32 22C32 12 20 4 20 4Z" fill="url(#logo-grad)"/>
  <!-- Inner cutout -->
  <path d="M20 8C20 8 12 14 12 22C12 26.418 15.582 30 20 30C24.418 30 28 26.418 28 22C28 14 20 8 20 8Z" fill="#0f1a0a"/>
  <!-- Center leaf -->
  <path d="M20 12C20 12 15 16 15 21C15 23.761 17.239 26 20 26C22.761 26 25 23.761 25 21C25 16 20 12 20 12Z" fill="url(#logo-grad)"/>
</svg>
